<svg width="1920" height="1080" xmlns="http://www.w3.org/2000/svg" data-name="Layer 1">

 <title>new_gmail_logo</title>
 <g>
  <title>Layer 1</title>
  <g stroke="null" id="svg_13">
   <path stroke="null" id="svg_1" fill="#4285f4" d="m648.79161,810.27531l114.5199,0l0,-278.38501l-163.64482,-122.73361l0,351.9937a49.12491,49.12491 0 0 0 49.12491,49.12491z" class="cls-1"/>
   <path stroke="null" id="svg_2" fill="#34a853" d="m1156.46818,810.27531l114.64578,0a49.12491,49.12491 0 0 0 49.21933,-49.12491l0,-352.08811l-163.64482,122.73361l-0.22029,278.47942z" class="cls-2"/>
   <path stroke="null" id="svg_3" fill="#fbbc04" d="m1156.46818,318.9947l0,212.89561l163.64482,-122.73361l0,-65.58381c0,-60.7374 -69.23434,-95.41752 -117.91868,-58.97507l-45.72614,34.39688z" class="cls-3"/>
   <path stroke="null" id="svg_4" fill="#ea4335" d="m763.31152,531.89031l0,-212.89561l196.49966,147.37474l196.53113,-147.37474l0,212.89561l-196.53113,147.37474l-196.49966,-147.37474z" class="cls-4"/>
   <path stroke="null" id="svg_5" fill="#c5221f" d="m599.6667,343.57289l0,65.4894l163.64482,122.73361l0,-212.8012l-45.72614,-34.39688c-48.68433,-36.44244 -117.91868,-1.76233 -117.91868,58.97507z" class="cls-5"/>
  </g>
 </g>
</svg>